<!-- TechInnovate Project Image -->
<svg width="350" height="200" xmlns="http://www.w3.org/2000/svg">
  <defs>
    <linearGradient id="tech-gradient" x1="0%" y1="0%" x2="100%" y2="100%">
      <stop offset="0%" style="stop-color:#667eea;stop-opacity:1" />
      <stop offset="100%" style="stop-color:#764ba2;stop-opacity:1" />
    </linearGradient>
  </defs>
  <rect width="350" height="200" fill="url(#tech-gradient)"/>
  <g transform="translate(50, 50)">
    <!-- Server/tech stack -->
    <rect x="80" y="30" width="50" height="8" fill="white" opacity="0.9" rx="4"/>
    <rect x="80" y="42" width="50" height="8" fill="white" opacity="0.9" rx="4"/>
    <rect x="80" y="54" width="50" height="8" fill="white" opacity="0.9" rx="4"/>
    <rect x="80" y="66" width="50" height="8" fill="white" opacity="0.9" rx="4"/>
    <!-- Connection points -->
    <circle cx="75" cy="34" r="2" fill="#667eea"/>
    <circle cx="75" cy="46" r="2" fill="#667eea"/>
    <circle cx="75" cy="58" r="2" fill="#667eea"/>
    <circle cx="75" cy="70" r="2" fill="#667eea"/>
    <circle cx="135" cy="34" r="2" fill="#667eea"/>
    <circle cx="135" cy="46" r="2" fill="#667eea"/>
    <circle cx="135" cy="58" r="2" fill="#667eea"/>
    <circle cx="135" cy="70" r="2" fill="#667eea"/>
    <!-- Innovation spark -->
    <polygon points="160,40 155,45 160,50 165,45" fill="white" opacity="0.8"/>
    <polygon points="50,50 45,55 50,60 55,55" fill="white" opacity="0.8"/>
    <!-- Code brackets -->
    <text x="40" y="35" fill="white" font-family="monospace" font-size="16" opacity="0.7">&lt;</text>
    <text x="170" y="35" fill="white" font-family="monospace" font-size="16" opacity="0.7">/&gt;</text>
  </g>
  <text x="175" y="140" text-anchor="middle" fill="white" font-family="Arial, sans-serif" font-size="18" font-weight="bold">TechInnovate</text>
  <text x="175" y="165" text-anchor="middle" fill="white" font-family="Arial, sans-serif" font-size="12" opacity="0.8">Hub de Inovação</text>
</svg>
